D:\school\WTK\thesis\model\3dpredictsim\Results\batch_windlass\Pog_s1_tmt_bCst_d05_k800_WL30_ig24_act_TTC_GRF.mot
nRows=22
nColumns=19

name D:\school\WTK\thesis\model\3dpredictsim\Results\batch_windlass\Pog_s1_tmt_bCst_d05_k800_WL30_ig24_act_TTC_GRF.mot
datacolumns 19
datarows 22
range 0.5970215376 0.8477705834
endheader
time 	ground_force_vx	ground_force_vy	ground_force_vz	ground_force_px	ground_force_py	ground_force_pz	1_ground_force_vx	1_ground_force_vy	1_ground_force_vz	1_ground_force_px	1_ground_force_py	1_ground_force_pz	ground_torque_x	ground_torque_y	ground_torque_z	1_ground_torque_x	1_ground_torque_y	1_ground_torque_z
        0.5970215376	       80.0442316173	      351.5721748089	        3.9675011310	        0.3852137292	        0.0000000000	        0.0334368071	      -61.7122264197	       42.8811186053	       -9.2184335142	        0.8983352955	        0.0000000000	       -0.0586286442	        0.0000000000	        0.0000000000	        0.0000000000	        0.0000000000	        0.0000000000	        0.0000000000	
        0.6089619684	       51.0458895618	      248.6444009826	       10.2914785284	        0.3963641779	        0.0000000000	        0.0285481919	     -128.1565955617	      108.5058423220	      -24.1328329231	        0.9120136604	        0.0000000000	       -0.0572357805	        0.0000000000	        0.0000000000	        0.0000000000	        0.0000000000	        0.0000000000	        0.0000000000	
        0.6209023991	       34.1312312743	      197.2774126814	       21.0732423098	        0.4012553974	        0.0000000000	        0.0264979617	     -128.7880431425	      265.6621051276	      -32.0532887836	        0.9258681453	        0.0000000000	       -0.0573849079	        0.0000000000	        0.0000000000	        0.0000000000	        0.0000000000	        0.0000000000	        0.0000000000	
        0.6328428299	       31.0891415888	      155.8339132230	       19.2812246081	        0.4015016571	        0.0000000000	        0.0264514602	      -96.6898943126	      605.8332247107	        9.6405962917	        0.9399534930	        0.0000000000	       -0.0591306661	        0.0000000000	        0.0000000000	        0.0000000000	        0.0000000000	        0.0000000000	        0.0000000000	
        0.6447832606	       19.4750827134	      104.2054295316	       13.1570218852	        0.4014648745	        0.0000000000	        0.0261783282	     -118.8349438304	      840.0132297074	       25.7225377116	        0.9476682502	        0.0000000000	       -0.0601952580	        0.0000000000	        0.0000000000	        0.0000000000	        0.0000000000	        0.0000000000	        0.0000000000	
        0.6567236914	       -2.8310891848	       45.7293291404	        7.8440344303	        0.3995917409	        0.0000000000	        0.0262233832	     -147.2177674004	      929.6872053550	       29.8998959957	        0.9556546823	        0.0000000000	       -0.0602762045	        0.0000000000	        0.0000000000	        0.0000000000	        0.0000000000	        0.0000000000	        0.0000000000	
        0.6686641221	       -3.3341199171	        3.3243711209	       -0.1960707360	        0.0000000000	        0.0000000000	        0.0000000000	     -154.7577604075	      950.5681507933	       27.9006291945	        0.9651530956	        0.0000000000	       -0.0595429580	        0.0000000000	        0.0000000000	        0.0000000000	        0.0000000000	        0.0000000000	        0.0000000000	
        0.6806045529	       -2.3553118027	        1.9107267169	       -0.2748163457	        0.0000000000	        0.0000000000	        0.0000000000	     -143.0573730569	      892.7486262963	       23.3365718915	        0.9730272067	        0.0000000000	       -0.0586447438	        0.0000000000	        0.0000000000	        0.0000000000	        0.0000000000	        0.0000000000	        0.0000000000	
        0.6925449836	       -0.4138060950	        0.2991330143	       -0.0434426468	        0.0000000000	        0.0000000000	        0.0000000000	     -122.1728327462	      817.2394194946	       19.5065416943	        0.9775285615	        0.0000000000	       -0.0580373234	        0.0000000000	        0.0000000000	        0.0000000000	        0.0000000000	        0.0000000000	        0.0000000000	
        0.7044854144	        0.1680882956	       -0.1136859905	        0.0139459557	        0.0000000000	        0.0000000000	        0.0000000000	     -105.0493549487	      761.5066422521	       17.9984824898	        0.9813535904	        0.0000000000	       -0.0576554080	        0.0000000000	        0.0000000000	        0.0000000000	        0.0000000000	        0.0000000000	        0.0000000000	
        0.7164258451	       -0.0587362479	        0.0372876940	       -0.0040796535	        0.0000000000	        0.0000000000	        0.0000000000	      -91.2814725960	      724.4348949889	       18.0666749677	        0.9847434938	        0.0000000000	       -0.0573855693	        0.0000000000	        0.0000000000	        0.0000000000	        0.0000000000	        0.0000000000	        0.0000000000	
        0.7283662759	       -0.2646095001	        0.1597356286	       -0.0150854894	        0.0000000000	        0.0000000000	        0.0000000000	      -78.6863271329	      697.5956630762	       19.0537715893	        0.9878601442	        0.0000000000	       -0.0571944348	        0.0000000000	        0.0000000000	        0.0000000000	        0.0000000000	        0.0000000000	        0.0000000000	
        0.7403067066	       -0.1812632096	        0.1021370724	       -0.0110381861	        0.0000000000	        0.0000000000	        0.0000000000	      -66.4039637445	      673.5057627668	       20.0061519241	        0.9910001470	        0.0000000000	       -0.0570558365	        0.0000000000	        0.0000000000	        0.0000000000	        0.0000000000	        0.0000000000	        0.0000000000	
        0.7522471374	       -0.0977577131	        0.0517794326	       -0.0061720814	        0.0000000000	        0.0000000000	        0.0000000000	      -55.4173420464	      650.6799861950	       19.8916749698	        0.9943682514	        0.0000000000	       -0.0569501481	        0.0000000000	        0.0000000000	        0.0000000000	        0.0000000000	        0.0000000000	        0.0000000000	
        0.7641875681	       -0.0573298383	        0.0288547518	       -0.0036546028	        0.0000000000	        0.0000000000	        0.0000000000	      -45.5242826080	      631.8014087719	       20.3160277969	        0.9985617625	        0.0000000000	       -0.0567817827	        0.0000000000	        0.0000000000	        0.0000000000	        0.0000000000	        0.0000000000	        0.0000000000	
        0.7761279989	       -0.0404031603	        0.0194923649	       -0.0025533804	        0.0000000000	        0.0000000000	        0.0000000000	      -38.3454859813	      616.9680134444	       20.5607959670	        1.0036065886	        0.0000000000	       -0.0565014282	        0.0000000000	        0.0000000000	        0.0000000000	        0.0000000000	        0.0000000000	        0.0000000000	
        0.7880684296	       -0.0349698329	        0.0162772078	       -0.0021596203	        0.0000000000	        0.0000000000	        0.0000000000	      -32.3927326830	      605.6972411581	       20.7084209528	        1.0092040402	        0.0000000000	       -0.0561153175	        0.0000000000	        0.0000000000	        0.0000000000	        0.0000000000	        0.0000000000	        0.0000000000	
        0.8000088604	       -0.0366310087	        0.0165308476	       -0.0021756794	        0.0000000000	        0.0000000000	        0.0000000000	      -28.2632354184	      597.5945348977	       20.5854002752	        1.0150892349	        0.0000000000	       -0.0556414298	        0.0000000000	        0.0000000000	        0.0000000000	        0.0000000000	        0.0000000000	        0.0000000000	
        0.8119492911	       -0.0452282773	        0.0198681208	       -0.0025357185	        0.0000000000	        0.0000000000	        0.0000000000	      -25.1406469506	      592.1858689809	       20.3826843858	        1.0208936792	        0.0000000000	       -0.0551242221	        0.0000000000	        0.0000000000	        0.0000000000	        0.0000000000	        0.0000000000	        0.0000000000	
        0.8238897219	       -0.0641624076	        0.0275246123	       -0.0033527517	        0.0000000000	        0.0000000000	        0.0000000000	      -22.0338579746	      588.4617632805	       20.2953969017	        1.0266057465	        0.0000000000	       -0.0545736738	        0.0000000000	        0.0000000000	        0.0000000000	        0.0000000000	        0.0000000000	        0.0000000000	
        0.8358301526	       -0.1010367366	        0.0424259077	       -0.0048930429	        0.0000000000	        0.0000000000	        0.0000000000	      -19.1001976536	      584.9527657294	       20.3265838165	        1.0321827086	        0.0000000000	       -0.0539985246	        0.0000000000	        0.0000000000	        0.0000000000	        0.0000000000	        0.0000000000	        0.0000000000	
        0.8477705834	       -0.1678895188	        0.0691562639	       -0.0075289779	        0.0000000000	        0.0000000000	        0.0000000000	      -16.2394232920	      581.0471670268	       20.3410883917	        1.0375359785	        0.0000000000	       -0.0534224469	        0.0000000000	        0.0000000000	        0.0000000000	        0.0000000000	        0.0000000000	        0.0000000000	
